<svg width="668" height="534" viewBox="0 0 668 534" fill="none" xmlns="http://www.w3.org/2000/svg">
<path d="M34 367H634M34 500.333H434M34 100.333H300.667M34 233.667H300.667M580.667 233.667H487.333C468.663 233.667 459.33 233.667 452.2 230.033C445.927 226.837 440.83 221.74 437.633 215.467C434 208.337 434 199.002 434 180.333V87.0001C434 68.3317 434 58.9974 437.633 51.8671C440.83 45.5951 445.927 40.4958 452.2 37.2998C459.33 33.6668 468.663 33.6667 487.333 33.6667H580.667C599.337 33.6667 608.67 33.6668 615.8 37.2998C622.073 40.4958 627.17 45.5951 630.367 51.8671C634 58.9974 634 68.3317 634 87.0001V180.333C634 199.002 634 208.337 630.367 215.467C627.17 221.74 622.073 226.837 615.8 230.033C608.67 233.667 599.337 233.667 580.667 233.667Z" stroke="#2A71FE" stroke-width="66.6667" stroke-linecap="round" stroke-linejoin="round"/>
</svg>
