<svg width="160" height="178" viewBox="0 0 160 178" fill="none" xmlns="http://www.w3.org/2000/svg">
<path fill-rule="evenodd" clip-rule="evenodd" d="M10.414 10.414C-1.05964e-06 20.828 0 37.589 0 71.1111V106.667C0 140.188 -1.05964e-06 156.95 10.414 167.364C20.828 177.778 37.589 177.778 71.1111 177.778H88.8889C122.411 177.778 139.172 177.778 149.586 167.364C160 156.95 160 140.188 160 106.667V71.1111C160 37.589 160 20.828 149.586 10.414C139.172 1.05964e-06 122.411 0 88.8889 0H71.1111C37.589 0 20.828 1.05964e-06 10.414 10.414ZM37.7778 53.3333C37.7778 49.6515 40.7626 46.6667 44.4444 46.6667H115.556C119.237 46.6667 122.222 49.6515 122.222 53.3333C122.222 57.0152 119.237 60 115.556 60H44.4444C40.7626 60 37.7778 57.0152 37.7778 53.3333ZM37.7778 88.8889C37.7778 85.2071 40.7626 82.2222 44.4444 82.2222H115.556C119.237 82.2222 122.222 85.2071 122.222 88.8889C122.222 92.5707 119.237 95.5556 115.556 95.5556H44.4444C40.7626 95.5556 37.7778 92.5707 37.7778 88.8889ZM44.4444 117.778C40.7626 117.778 37.7778 120.763 37.7778 124.444C37.7778 128.126 40.7626 131.111 44.4444 131.111H88.8889C92.5707 131.111 95.5556 128.126 95.5556 124.444C95.5556 120.763 92.5707 117.778 88.8889 117.778H44.4444Z" fill="#1C274C" stroke="black" stroke-width="0.00213333"/>
</svg>
