<svg width="667" height="668" viewBox="0 0 667 668" fill="none" xmlns="http://www.w3.org/2000/svg">
<path d="M450.63 484.043C456.463 479.493 461.753 474.203 472.337 463.62L604.25 331.707C607.437 328.52 605.977 323.027 601.717 321.547C586.147 316.147 565.89 306.003 546.943 287.057C527.997 268.11 517.853 247.854 512.453 232.283C510.973 228.022 505.48 226.562 502.293 229.751L370.38 361.663C359.797 372.247 354.507 377.537 349.957 383.37C344.59 390.253 339.987 397.697 336.233 405.577C333.05 412.253 330.683 419.353 325.953 433.55L319.837 451.893L310.113 481.06L300.997 508.41C298.67 515.397 300.487 523.097 305.693 528.307C310.903 533.513 318.603 535.33 325.59 533.003L352.94 523.887L382.107 514.163L400.45 508.047C414.643 503.317 421.747 500.95 428.423 497.767C436.303 494.013 443.747 489.41 450.63 484.043Z" fill="#3D6AFF"/>
<path d="M645.55 290.407C673.707 262.251 673.707 216.604 645.55 188.449C617.397 160.295 571.75 160.295 543.593 188.449L539.353 192.69C535.26 196.783 533.407 202.499 534.43 208.195C535.073 211.779 536.263 217.018 538.433 223.269C542.77 235.771 550.96 252.183 566.39 267.61C581.817 283.04 598.23 291.23 610.73 295.567C616.983 297.737 622.22 298.927 625.803 299.57C631.5 300.593 637.217 298.74 641.31 294.647L645.55 290.407Z" fill="#3D6AFF"/>
<path fill-rule="evenodd" clip-rule="evenodd" d="M39.0523 39.719C1.12851e-05 78.7716 1.52588e-05 141.625 1.52588e-05 267.333V400.667C1.52588e-05 526.373 1.12851e-05 589.23 39.0523 628.28C78.105 667.333 140.959 667.333 266.667 667.333H333.333C459.04 667.333 521.897 667.333 560.947 628.28C599.373 589.853 599.99 528.387 600 406.67L506.057 500.613C497.063 509.61 489.7 516.98 481.383 523.47C471.637 531.07 461.093 537.587 449.937 542.903C440.413 547.44 430.53 550.733 418.46 554.75L341.403 580.437C316.45 588.753 288.94 582.26 270.34 563.66C251.743 545.06 245.247 517.55 253.567 492.597L262.683 465.25L278.52 417.737L279.25 415.543C283.27 403.473 286.56 393.587 291.097 384.063C296.413 372.907 302.93 362.363 310.533 352.62C317.02 344.3 324.39 336.937 333.39 327.943L466.937 194.396L504 157.335L508.24 153.094C532.087 129.247 563.343 117.327 594.6 117.333C589.557 82.9816 579.803 58.5756 560.947 39.719C521.897 0.66663 459.04 0.666626 333.333 0.666626H266.667C140.959 0.666626 78.105 0.66663 39.0523 39.719ZM141.667 234C141.667 220.193 152.86 209 166.667 209H383.333C397.14 209 408.333 220.193 408.333 234C408.333 247.807 397.14 259 383.333 259H166.667C152.86 259 141.667 247.807 141.667 234ZM141.667 367.333C141.667 353.527 152.86 342.333 166.667 342.333H250C263.807 342.333 275 353.527 275 367.333C275 381.14 263.807 392.333 250 392.333H166.667C152.86 392.333 141.667 381.14 141.667 367.333ZM141.667 500.667C141.667 486.86 152.86 475.667 166.667 475.667H216.667C230.474 475.667 241.667 486.86 241.667 500.667C241.667 514.473 230.474 525.667 216.667 525.667H166.667C152.86 525.667 141.667 514.473 141.667 500.667Z" fill="#3D6AFF"/>
</svg>
