<svg width="534" height="658" viewBox="0 0 534 658" fill="none" xmlns="http://www.w3.org/2000/svg">
<path fill-rule="evenodd" clip-rule="evenodd" d="M0.333344 90.6666V557.333C0.333344 612.563 45.105 657.333 100.333 657.333H433.667C488.897 657.333 533.667 612.563 533.667 557.333V224C533.667 168.772 488.897 124 433.667 124H33.6667C15.2573 124 0.333344 109.076 0.333344 90.6666ZM108.667 324C108.667 310.193 119.86 299 133.667 299H400.333C414.14 299 425.333 310.193 425.333 324C425.333 337.807 414.14 349 400.333 349H133.667C119.86 349 108.667 337.807 108.667 324ZM108.667 440.667C108.667 426.86 119.86 415.667 133.667 415.667H317C330.807 415.667 342 426.86 342 440.667C342 454.473 330.807 465.667 317 465.667H133.667C119.86 465.667 108.667 454.473 108.667 440.667Z" fill="#577BFF"/>
<path d="M13.9597 60.2367C25.5757 65.446 33.6667 77.1113 33.6667 90.6667H433.667C445.177 90.6667 456.347 92.125 467 94.8673V67.5347C467 26.9647 431.067 -4.19933 390.907 1.538L30.9863 52.955C24.5707 53.8717 18.757 56.458 13.9597 60.2367Z" fill="#577BFF"/>
</svg>
