<svg width="496" height="496" viewBox="0 0 496 496" fill="none" xmlns="http://www.w3.org/2000/svg">
<path d="M248 48C261.254 48 272 37.2547 272 24C272 10.7453 261.254 0 248 0V48ZM496 248C496 234.746 485.254 224 472 224C458.746 224 448 234.746 448 248H496ZM472 48C485.254 48 496 37.2547 496 24C496 10.7453 485.254 0 472 0V48ZM341.184 0C327.93 0 317.184 10.7453 317.184 24C317.184 37.2547 327.93 48 341.184 48V0ZM496 24C496 10.7453 485.254 0 472 0C458.746 0 448 10.7453 448 24H496ZM448 156.512C448 169.766 458.746 180.512 472 180.512C485.254 180.512 496 169.766 496 156.512H448ZM488.97 40.9706C498.342 31.5981 498.342 16.4019 488.97 7.02943C479.597 -2.34305 464.403 -2.34305 455.03 7.02943L488.97 40.9706ZM231.03 231.03C221.658 240.403 221.658 255.597 231.03 264.97C240.403 274.342 255.597 274.342 264.97 264.97L231.03 231.03ZM248 0H152V48H248V0ZM152 0C68.0528 0 0 68.0528 0 152H48C48 94.5622 94.5622 48 152 48V0ZM0 152V344H48V152H0ZM0 344C0 427.949 68.0528 496 152 496V448C94.5622 448 48 401.437 48 344H0ZM152 496H344V448H152V496ZM344 496C427.949 496 496 427.949 496 344H448C448 401.437 401.437 448 344 448V496ZM496 344V248H448V344H496ZM472 0H341.184V48H472V0ZM448 24V156.512H496V24H448ZM455.03 7.02943L231.03 231.03L264.97 264.97L488.97 40.9706L455.03 7.02943Z" fill="white"/>
</svg>
